<svg width="20" height="28" viewBox="0 0 20 28" fill="none" xmlns="http://www.w3.org/2000/svg">
<path d="M10 27.9976C7.41514 28.0503 4.91089 27.2399 3.03632 25.7442C1.16174 24.2485 0.0698364 22.1896 0 20.0188V5.78285C0.0480567 4.21355 0.834408 2.72415 2.18693 1.64066C3.53946 0.557178 5.34799 -0.0321412 7.21667 0.00169939C9.08819 -0.0359008 10.901 0.551743 12.2572 1.63563C13.6133 2.71952 14.402 4.21107 14.45 5.78285V20.0328C14.3807 20.9826 13.8826 21.8745 13.0572 22.5265C12.2318 23.1786 11.1414 23.5416 10.0083 23.5416C8.87524 23.5416 7.78483 23.1786 6.95947 22.5265C6.13411 21.8745 5.63598 20.9826 5.56667 20.0328V6.88869C5.56667 6.51744 5.74226 6.1614 6.05482 5.89888C6.36738 5.63637 6.79131 5.48889 7.23333 5.48889C7.67536 5.48889 8.09928 5.63637 8.41184 5.89888C8.7244 6.1614 8.9 6.51744 8.9 6.88869V20.0328C8.93324 20.26 9.06428 20.4691 9.26844 20.6208C9.47259 20.7725 9.73576 20.8563 10.0083 20.8563C10.2809 20.8563 10.5441 20.7725 10.7482 20.6208C10.9524 20.4691 11.0834 20.26 11.1167 20.0328V5.78285C11.0649 4.95475 10.6263 4.17721 9.89613 3.61901C9.16597 3.06081 8.20317 2.76698 7.21667 2.80129C6.23299 2.77075 5.27446 3.06627 4.54793 3.62408C3.82141 4.1819 3.38516 4.95726 3.33333 5.78285V20.0188C3.40272 21.4472 4.14328 22.7943 5.39282 23.765C6.64236 24.7358 8.29903 25.251 10 25.198C11.701 25.251 13.3576 24.7358 14.6072 23.765C15.8567 22.7943 16.5973 21.4472 16.6667 20.0188V5.78285C16.6667 5.4116 16.8423 5.05556 17.1548 4.79305C17.4674 4.53053 17.8913 4.38306 18.3333 4.38306C18.7754 4.38306 19.1993 4.53053 19.5118 4.79305C19.8244 5.05556 20 5.4116 20 5.78285V20.0188C19.9302 22.1896 18.8383 24.2485 16.9637 25.7442C15.0891 27.2399 12.5849 28.0503 10 27.9976Z" fill="black"/>
</svg>
