<svg width="26" height="26" viewBox="0 0 26 26" fill="none" xmlns="http://www.w3.org/2000/svg">
<path d="M25 13C25 14.5759 24.6896 16.1363 24.0866 17.5922C23.4835 19.0481 22.5996 20.371 21.4853 21.4853C20.371 22.5996 19.0481 23.4835 17.5922 24.0866C16.1363 24.6896 14.5759 25 13 25C11.4241 25 9.86371 24.6896 8.4078 24.0866C6.95189 23.4835 5.62902 22.5996 4.51472 21.4853C3.40042 20.371 2.5165 19.0481 1.91345 17.5922C1.31039 16.1363 1 14.5759 1 13C1 9.8174 2.26428 6.76516 4.51472 4.51472C6.76516 2.26428 9.8174 1 13 1C16.1826 1 19.2348 2.26428 21.4853 4.51472C23.7357 6.76516 25 9.8174 25 13Z" stroke="black" stroke-width="0.75" stroke-linecap="round" stroke-linejoin="round"/>
<path d="M19.6693 23.002C19.2466 14.7526 6.7586 14.7526 6.33594 23.002M16.3359 9.33529C16.3359 10.2193 15.9847 11.0672 15.3596 11.6923C14.7345 12.3174 13.8867 12.6686 13.0026 12.6686C12.1185 12.6686 11.2707 12.3174 10.6456 11.6923C10.0205 11.0672 9.66927 10.2193 9.66927 9.33529C9.66927 8.45123 10.0205 7.60339 10.6456 6.97826C11.2707 6.35314 12.1185 6.00195 13.0026 6.00195C13.8867 6.00195 14.7345 6.35314 15.3596 6.97826C15.9847 7.60339 16.3359 8.45123 16.3359 9.33529Z" stroke="black" stroke-width="0.75" stroke-linecap="round" stroke-linejoin="round"/>
</svg>
