<svg width="20" height="19" viewBox="0 0 20 19" fill="none" xmlns="http://www.w3.org/2000/svg">
<path d="M8 5.5V3.5C8 2.96957 8.21071 2.46086 8.58579 2.08579C8.96086 1.71071 9.46957 1.5 10 1.5H17C17.5304 1.5 18.0391 1.71071 18.4142 2.08579C18.7893 2.46086 19 2.96957 19 3.5V15.5C19 16.0304 18.7893 16.5391 18.4142 16.9142C18.0391 17.2893 17.5304 17.5 17 17.5H10C9.46957 17.5 8.96086 17.2893 8.58579 16.9142C8.21071 16.5391 8 16.0304 8 15.5V13.5" stroke="black" stroke-width="2" stroke-linecap="round" stroke-linejoin="round"/>
<path d="M13 9.5H1M1 9.5L4 6.5M1 9.5L4 12.5" stroke="black" stroke-width="2" stroke-linecap="round" stroke-linejoin="round"/>
</svg>
