<svg width="37" height="37" viewBox="0 0 37 37" fill="none" xmlns="http://www.w3.org/2000/svg">
<path d="M35.375 18.5C35.375 20.7161 34.9385 22.9104 34.0905 24.9578C33.2424 27.0052 31.9994 28.8654 30.4324 30.4324C28.8654 31.9994 27.0052 33.2424 24.9578 34.0905C22.9104 34.9385 20.7161 35.375 18.5 35.375C16.2839 35.375 14.0896 34.9385 12.0422 34.0905C9.99485 33.2424 8.13456 31.9994 6.56757 30.4324C5.00058 28.8654 3.75758 27.0052 2.90953 24.9578C2.06148 22.9104 1.625 20.7161 1.625 18.5C1.625 14.0245 3.4029 9.73225 6.56757 6.56757C9.73225 3.4029 14.0245 1.625 18.5 1.625C22.9755 1.625 27.2677 3.4029 30.4324 6.56757C33.5971 9.73225 35.375 14.0245 35.375 18.5Z" stroke="black" stroke-width="1.5" stroke-linecap="round" stroke-linejoin="round"/>
<path d="M27.875 32.5625C27.2806 20.9619 9.71938 20.9619 9.125 32.5625M23.1875 13.3438C23.1875 14.587 22.6936 15.7792 21.8146 16.6583C20.9355 17.5374 19.7432 18.0312 18.5 18.0312C17.2568 18.0312 16.0645 17.5374 15.1854 16.6583C14.3064 15.7792 13.8125 14.587 13.8125 13.3438C13.8125 12.1005 14.3064 10.9083 15.1854 10.0292C16.0645 9.15011 17.2568 8.65625 18.5 8.65625C19.7432 8.65625 20.9355 9.15011 21.8146 10.0292C22.6936 10.9083 23.1875 12.1005 23.1875 13.3438Z" stroke="black" stroke-width="1.5" stroke-linecap="round" stroke-linejoin="round"/>
</svg>
