<svg xmlns="http://www.w3.org/2000/svg" width="138" height="60" viewBox="0 0 138 60" fill="none"><path d="M4.53113 59.9976V55.3567H7.92632V56.1481H5.30254V57.1841H6.83287V57.973H5.30254V59.1239H7.95877V59.9976H4.53113ZM11.9981 59.9976V56.1955H12.4524L14.7591 58.7219V56.1955H15.3583V59.9976H14.9014L12.5997 57.4337V59.9976H11.9981ZM22.0937 56.8945H20.0267V59.2711H22.0937V58.4623H21.0128V57.7857H22.7428V59.0989C22.7428 59.4484 22.6929 59.6856 22.598 59.8104C22.5007 59.9352 22.3134 59.9976 22.0388 59.9976H20.0716C19.7945 59.9976 19.6098 59.9352 19.5124 59.8104C19.415 59.6831 19.3676 59.4484 19.3676 59.0989V57.0917C19.3676 56.7447 19.415 56.5101 19.5124 56.3852C19.6098 56.2604 19.797 56.1955 20.0716 56.1955H22.0388C22.3134 56.1955 22.4982 56.2579 22.598 56.3802C22.6954 56.5026 22.7453 56.7272 22.7453 57.0468V57.1467L22.0962 57.3014V56.892L22.0937 56.8945ZM26.7322 59.9976V56.1955H27.3912V59.9976H26.7322ZM31.458 59.9976V56.1955H31.9123L34.2191 58.7219V56.1955H34.8182V59.9976H34.3589L32.0571 57.4337V59.9976H31.4555H31.458ZM38.89 59.9976V56.1955H41.8058V56.867H39.559V57.6959H40.8672V58.3499H39.559V59.2861H41.8408V59.9976H38.89ZM45.6529 59.9976V56.1955H48.5687V56.867H46.3219V57.6959H47.6301V58.3499H46.3219V59.2861H48.6037V59.9976H45.6529ZM54.5827 56.8496H53.0699V57.9031H54.5827C54.6976 57.9031 54.7775 57.8781 54.8199 57.8332C54.8623 57.7857 54.8848 57.7084 54.8848 57.596V57.1566C54.8848 57.0468 54.8623 56.9669 54.8199 56.9195C54.7775 56.872 54.6976 56.8496 54.5827 56.8496ZM52.4158 59.9976V56.1955H54.8648C55.0895 56.1955 55.2518 56.2529 55.3516 56.3703C55.4515 56.4851 55.5014 56.6748 55.5014 56.9345V57.8307C55.5014 58.0878 55.4515 58.2751 55.3516 58.3899C55.2518 58.5047 55.0895 58.5597 54.8648 58.5597H54.4904L55.7835 60.0001H54.8324L53.694 58.5597H53.0699V60.0001H52.4158V59.9976ZM59.4508 59.9976V56.1955H60.1099V59.9976H59.4508ZM64.1766 59.9976V56.1955H64.631L66.9377 58.7219V56.1955H67.5369V59.9976H67.08L64.7783 57.4337V59.9976H64.1766ZM74.2723 56.8945H72.2053V59.2711H74.2723V58.4623H73.1939V57.7857H74.9239V59.0989C74.9239 59.4484 74.874 59.6856 74.7791 59.8104C74.6818 59.9352 74.4945 59.9976 74.2199 59.9976H72.2527C71.9756 59.9976 71.7908 59.9352 71.6935 59.8104C71.5961 59.6831 71.5487 59.4484 71.5487 59.0989V57.0917C71.5487 56.7447 71.5961 56.5101 71.6935 56.3852C71.7908 56.2604 71.9781 56.1955 72.2527 56.1955H74.2199C74.4945 56.1955 74.6793 56.2579 74.7791 56.3802C74.8765 56.5026 74.9264 56.7272 74.9264 57.0468V57.1467L74.2773 57.3014V56.892L74.2723 56.8945ZM87.3738 56.168H85.2019V57.1641H87.2689C87.5935 57.1641 87.8132 57.2415 87.9255 57.3963C88.0403 57.5511 88.0953 57.8407 88.0953 58.2601V58.8967C88.0953 59.3186 88.0378 59.6057 87.9255 59.7605C87.8107 59.9152 87.5935 59.9926 87.2689 59.9926H85.2193C84.8948 59.9926 84.6751 59.9152 84.5603 59.7605C84.4454 59.6057 84.3905 59.3161 84.3905 58.8967V58.7694L85.072 58.5721V59.1214H87.4162V58.0629H85.3491C85.0271 58.0629 84.8099 57.9855 84.6976 57.8307C84.5852 57.6759 84.5278 57.3888 84.5278 56.9669V56.4526C84.5278 56.0307 84.5852 55.7411 84.6976 55.5889C84.8099 55.4341 85.0271 55.3567 85.3491 55.3567H87.2315C87.5435 55.3567 87.7582 55.4316 87.8756 55.5814C87.9929 55.7312 88.0528 55.9958 88.0528 56.3752V56.4726L87.3713 56.6973V56.1705L87.3738 56.168ZM92.3143 59.9976V56.1955H95.2301V56.867H92.9833V57.6959H94.2915V58.3499H92.9833V59.2861H95.2651V59.9976H92.3143ZM101.242 56.8496H99.7288V57.9031H101.242C101.356 57.9031 101.436 57.8781 101.479 57.8332C101.521 57.7857 101.544 57.7084 101.544 57.596V57.1566C101.544 57.0468 101.521 56.9669 101.479 56.9195C101.436 56.872 101.356 56.8496 101.242 56.8496ZM99.0772 59.9976V56.1955H101.526C101.751 56.1955 101.911 56.2529 102.013 56.3703C102.113 56.4851 102.163 56.6748 102.163 56.9345V57.8307C102.163 58.0878 102.113 58.2751 102.013 58.3899C101.913 58.5047 101.751 58.5597 101.526 58.5597H101.152L102.445 60.0001H101.494L100.355 58.5597H99.7313V60.0001H99.0772V59.9976ZM107.153 59.9976L105.508 56.1955H106.257L107.408 58.9541L108.494 56.1955H109.18L107.605 59.9976H107.151H107.153ZM112.798 59.9976V56.1955H113.457V59.9976H112.798ZM119.908 56.8945H118.123V59.2711H119.908V58.4623L120.577 58.652V59.0989C120.577 59.4434 120.527 59.6806 120.429 59.8079C120.332 59.9352 120.142 59.9976 119.865 59.9976H118.168C117.893 59.9976 117.708 59.9352 117.608 59.8104C117.511 59.6831 117.461 59.4484 117.461 59.0989V57.0917C117.461 56.7447 117.511 56.5101 117.606 56.3852C117.703 56.2604 117.891 56.1955 118.165 56.1955H119.863C120.142 56.1955 120.332 56.2579 120.429 56.3852C120.527 56.5126 120.574 56.7472 120.574 57.0917V57.4612L119.905 57.596V56.8945H119.908ZM124.521 59.9976V56.1955H127.437V56.867H125.19V57.6959H126.498V58.3499H125.19V59.2861H127.472V59.9976H124.521ZM133.796 56.877H131.926V57.6809H133.696C133.975 57.6809 134.162 57.7433 134.257 57.8681C134.352 57.993 134.402 58.2301 134.402 58.5771V59.0989C134.402 59.4484 134.352 59.6856 134.255 59.8104C134.158 59.9352 133.97 59.9976 133.696 59.9976H131.931C131.651 59.9976 131.461 59.9352 131.361 59.8104C131.262 59.6831 131.214 59.4484 131.214 59.0989V58.994L131.803 58.8393V59.2861H133.803V58.4174H132.043C131.766 58.4174 131.576 58.3524 131.479 58.2276C131.381 58.1003 131.332 57.8631 131.332 57.5186V57.0942C131.332 56.7522 131.381 56.5175 131.479 56.3877C131.576 56.2604 131.766 56.198 132.043 56.198H133.656C133.93 56.198 134.118 56.2604 134.22 56.3802C134.322 56.5026 134.372 56.7173 134.372 57.0243V57.1167L133.798 57.2889V56.8795L133.796 56.877Z" fill="#414141"></path><path d="M70.8921 22.8749C70.1981 22.8874 69.5215 23.0447 68.8625 23.3468C68.2034 23.6463 67.6292 24.0033 67.1399 24.4227C66.401 25.0244 65.7144 25.6535 65.0853 26.3051C64.4562 26.9592 63.8221 27.6532 63.183 28.3896C63.1381 28.4271 63.0732 28.4371 62.9883 28.4246C62.9009 28.4096 62.8535 28.3547 62.8435 28.2573C62.8435 27.8704 62.8635 27.3261 62.8984 26.6246C62.9334 25.9231 62.9733 25.2241 63.0133 24.5301C63.0557 23.8361 63.0907 23.3068 63.1131 22.9423C63.1031 22.8699 63.0532 22.795 62.9608 22.7251C62.866 22.6503 62.7811 22.6128 62.7062 22.6078C62.0971 22.9448 61.3631 23.2694 60.5068 23.5789C59.6505 23.8885 58.7468 24.1656 57.7982 24.4178C56.847 24.6674 55.9258 24.8771 55.0346 25.0419C54.1433 25.2066 53.3594 25.3165 52.6829 25.3689C52.613 25.4213 52.5556 25.5437 52.5057 25.7359C52.4582 25.9256 52.4233 26.1203 52.4033 26.325C52.3833 26.5298 52.3858 26.6795 52.4083 26.7794C53.3694 27.1364 54.0809 27.4759 54.5453 27.7955C55.0071 28.1125 55.3092 28.4146 55.4565 28.7042C55.5988 28.9938 55.6737 29.2709 55.6837 29.5405C55.7486 30.0623 55.7885 30.8187 55.8035 31.8023C55.816 32.7884 55.8235 33.8943 55.821 35.1226C55.821 36.6504 55.811 38.1583 55.7985 39.6462C55.7835 41.1316 55.761 42.4372 55.7311 43.5556C55.6986 44.6766 55.6612 45.4505 55.6162 45.8823C55.5788 46.6063 55.464 47.1406 55.2742 47.4801C55.0845 47.8196 54.8324 48.0493 54.5253 48.1691C54.1433 48.3014 53.7289 48.4063 53.2796 48.4787C52.8302 48.5536 52.3808 48.606 51.9315 48.6384C51.884 48.7408 51.8541 48.9106 51.8416 49.1477C51.8241 49.3874 51.8241 49.627 51.8416 49.8642C51.8541 50.1039 51.8865 50.2736 51.9315 50.3735C52.4258 50.3735 53.0823 50.3535 53.8987 50.3236C54.715 50.2911 55.5938 50.2611 56.5325 50.2287C57.4711 50.1987 58.3698 50.1813 59.2286 50.1788C60.5343 50.1788 61.7625 50.1962 62.9159 50.2287C64.0668 50.2586 65.0803 50.2911 65.9516 50.3236C66.8254 50.3535 67.4919 50.371 67.9563 50.3735C68.0686 50.2736 68.1535 50.1039 68.2109 49.8642C68.2658 49.6245 68.2933 49.3874 68.2958 49.1477C68.2958 48.9081 68.2758 48.7383 68.2284 48.6384C67.6142 48.5735 67.0176 48.5011 66.4384 48.4187C65.8592 48.3389 65.295 48.2315 64.7508 48.0992C64.1517 47.917 63.7447 47.6274 63.5325 47.2329C63.3178 46.8385 63.2005 46.2294 63.183 45.408C63.1556 45.1883 63.1331 44.709 63.1106 43.9626C63.0907 43.2186 63.0732 42.3149 63.0582 41.2539C63.0432 40.1929 63.0332 39.0795 63.0258 37.9111C63.0208 36.7428 63.0208 35.6244 63.0233 34.5584C63.0258 33.4899 63.0332 32.5787 63.0482 31.8223C63.0507 31.5152 63.0957 31.2231 63.1855 30.9485C63.2754 30.6739 63.3877 30.4492 63.525 30.2769C63.8671 29.8351 64.2565 29.4906 64.6934 29.2434C65.1303 28.9963 65.6046 28.8689 66.1164 28.8664C67.0151 28.8864 67.8939 29.1336 68.7501 29.6054C69.6064 30.0797 70.3654 30.6614 71.0269 31.3529C71.1143 31.3529 71.2466 31.3354 71.4288 31.303C71.6086 31.2705 71.7259 31.2181 71.7783 31.1507C72.1079 30.7438 72.4649 30.1896 72.8443 29.4931C73.2263 28.7941 73.5583 28.105 73.8504 27.4285C74.14 26.7519 74.3123 26.2452 74.3697 25.9056C74.4046 25.7459 74.4196 25.5262 74.4196 25.2416C74.4196 24.957 74.4021 24.7523 74.3697 24.6275C74.0876 24.0832 73.6457 23.6563 73.0391 23.3493C72.4349 23.0397 71.7184 22.8824 70.8896 22.8774L70.8921 22.8749ZM94.5736 22.8749C93.8795 22.8874 93.203 23.0447 92.5439 23.3468C91.8849 23.6463 91.3107 24.0033 90.8214 24.4227C90.0799 25.0244 89.3959 25.6535 88.7668 26.3051C88.1377 26.9592 87.5036 27.6532 86.8645 28.3896C86.8195 28.4271 86.7546 28.4371 86.6673 28.4246C86.5799 28.4096 86.5325 28.3547 86.5225 28.2573C86.5225 27.8704 86.5424 27.3261 86.5774 26.6246C86.6123 25.9231 86.6498 25.2241 86.6922 24.5301C86.7347 23.8361 86.7671 23.3068 86.7946 22.9423C86.7871 22.8699 86.7347 22.795 86.6398 22.7251C86.5474 22.6503 86.4626 22.6128 86.3852 22.6078C85.776 22.9448 85.0421 23.2694 84.1858 23.5789C83.3295 23.8885 82.4258 24.1656 81.4771 24.4178C80.526 24.6674 79.6048 24.8771 78.7135 25.0419C77.8223 25.2066 77.0384 25.3165 76.3619 25.3689C76.292 25.4213 76.232 25.5437 76.1846 25.7359C76.1372 25.9256 76.1022 26.1203 76.0823 26.325C76.0623 26.5298 76.0648 26.6795 76.0872 26.7794C77.0484 27.1364 77.7599 27.4759 78.2242 27.7955C78.6861 28.1125 78.9881 28.4146 79.1329 28.7042C79.2752 28.9938 79.3526 29.2709 79.3601 29.5405C79.425 30.0623 79.465 30.8187 79.4799 31.8023C79.4924 32.7884 79.4999 33.8943 79.4974 35.1226C79.4974 36.6504 79.4874 38.1583 79.475 39.6462C79.4575 41.1316 79.435 42.4372 79.4051 43.5556C79.3751 44.6766 79.3351 45.4505 79.2927 45.8823C79.2553 46.6063 79.1404 47.1406 78.9507 47.4801C78.7585 47.8196 78.5088 48.0493 78.2018 48.1691C77.8198 48.3014 77.4054 48.4063 76.956 48.4787C76.5067 48.5536 76.0573 48.606 75.6079 48.6384C75.563 48.7408 75.5305 48.9106 75.5156 49.1477C75.5006 49.3874 75.5006 49.627 75.5156 49.8642C75.5305 50.1039 75.5605 50.2736 75.6079 50.3735C76.1022 50.3735 76.7588 50.3535 77.5751 50.3236C78.3915 50.2911 79.2702 50.2611 80.2089 50.2287C81.1476 50.1987 82.0463 50.1813 82.9026 50.1788C84.2082 50.1788 85.4365 50.1962 86.5899 50.2287C87.7407 50.2586 88.7543 50.2911 89.6256 50.3236C90.4968 50.3535 91.1659 50.371 91.6302 50.3735C91.7426 50.2736 91.8274 50.1039 91.8824 49.8642C91.9373 49.6245 91.9673 49.3874 91.9673 49.1477C91.9673 48.9081 91.9473 48.7383 91.8998 48.6384C91.2857 48.5735 90.6891 48.5011 90.1099 48.4187C89.5307 48.3389 88.9665 48.2315 88.4223 48.0992C87.8231 47.917 87.4162 47.6274 87.2015 47.2329C86.9868 46.8385 86.8695 46.2294 86.852 45.408C86.8245 45.1883 86.8021 44.709 86.7796 43.9626C86.7596 43.2186 86.7422 42.3149 86.7272 41.2539C86.7122 40.1929 86.7022 39.0795 86.6972 37.9111C86.6922 36.7428 86.6897 35.6244 86.6922 34.5584C86.6972 33.4899 86.7022 32.5787 86.7172 31.8223C86.7197 31.5152 86.7646 31.2231 86.8545 30.9485C86.9419 30.6739 87.0567 30.4492 87.1965 30.2769C87.5385 29.8351 87.928 29.4906 88.3649 29.2434C88.8017 28.9963 89.2761 28.8689 89.7903 28.8664C90.6891 28.8864 91.5678 29.1336 92.4241 29.6054C93.2804 30.0797 94.0393 30.6614 94.7009 31.3529C94.7858 31.3529 94.9206 31.3354 95.1003 31.303C95.2801 31.2705 95.3974 31.2181 95.4498 31.1507C95.7794 30.7438 96.1363 30.1896 96.5158 29.4931C96.8978 28.7941 97.2323 28.105 97.5219 27.4285C97.8115 26.7519 97.9837 26.2452 98.0411 25.9056C98.0736 25.7459 98.0911 25.5262 98.0911 25.2416C98.0911 24.957 98.0736 24.7523 98.0411 24.6275C97.759 24.0832 97.3172 23.6563 96.7105 23.3493C96.1039 23.0397 95.3899 22.8824 94.5611 22.8774L94.5736 22.8749ZM110.494 17.0132C110.499 16.7511 110.456 16.4016 110.364 15.9622C110.276 15.5229 110.114 15.1559 109.877 14.8613C109.765 14.7115 109.477 14.5417 109.016 14.357C108.554 14.1723 107.977 14.0724 107.286 14.0549C106.799 14.0574 106.287 14.1198 105.755 14.2397C105.221 14.3595 104.727 14.5193 104.27 14.7215C103.813 14.9237 103.453 15.1509 103.194 15.4005C103.037 15.5903 102.919 15.8474 102.844 16.1694C102.769 16.494 102.73 16.8235 102.725 17.163C102.717 17.5025 102.739 17.7896 102.784 18.0218C102.882 18.611 103.082 19.1652 103.381 19.687C103.683 20.2087 104.12 20.5957 104.694 20.8478C104.971 20.9751 105.403 21.0325 105.985 21.0126C106.569 20.9951 107.141 20.9352 107.7 20.8378C108.259 20.738 108.646 20.6281 108.856 20.5108C109.313 20.1263 109.695 19.6195 110.007 18.9904C110.319 18.3613 110.481 17.7023 110.494 17.0157V17.0132ZM114.378 48.6334C113.744 48.566 113.237 48.4837 112.86 48.3913C112.481 48.2964 112.146 48.1991 111.854 48.0967C111.412 47.9819 111.085 47.7422 110.873 47.3752C110.661 47.0082 110.556 46.3966 110.558 45.5428C110.536 44.5143 110.521 43.3434 110.511 42.0278C110.501 40.7122 110.498 39.3716 110.496 38.006C110.496 36.6404 110.496 35.3647 110.496 34.1789C110.496 33.2103 110.496 32.1818 110.506 31.0958C110.511 30.0098 110.518 28.9388 110.526 27.8754C110.533 26.8144 110.541 25.8332 110.548 24.932C110.553 24.0308 110.558 23.2819 110.558 22.6802C109.775 23.0172 108.876 23.3268 107.862 23.6039C106.849 23.8835 105.825 24.1232 104.794 24.3254C103.763 24.5301 102.827 24.6874 101.983 24.7972C101.142 24.9096 100.498 24.9645 100.053 24.967C100.006 25.0469 99.9634 25.1942 99.9285 25.4113C99.8935 25.631 99.876 25.8482 99.881 26.0654C99.881 26.2826 99.9185 26.4324 99.9859 26.5123C100.657 26.7694 101.192 26.9966 101.589 27.1938C101.986 27.391 102.318 27.6357 102.577 27.9253C102.777 28.1674 102.909 28.4396 102.972 28.7391C103.034 29.0412 103.062 29.3283 103.057 29.6054C103.079 29.9774 103.099 30.4966 103.119 31.1682C103.139 31.8372 103.154 32.5812 103.166 33.4025C103.179 34.2214 103.184 35.0427 103.184 35.8615C103.184 36.6804 103.181 37.6141 103.174 38.5652C103.166 39.5164 103.156 40.4425 103.146 41.3513C103.134 42.2575 103.119 43.0738 103.106 43.7953C103.091 44.5193 103.077 45.081 103.059 45.4779C103.037 46.2743 102.944 46.8834 102.777 47.3028C102.61 47.7222 102.295 48.0093 101.831 48.1691C101.486 48.269 101.099 48.3563 100.67 48.4287C100.241 48.5036 99.7862 48.5735 99.3069 48.6384C99.2395 48.7208 99.1995 48.8856 99.187 49.1352C99.1745 49.3849 99.187 49.6345 99.2195 49.8817C99.2519 50.1313 99.3044 50.2961 99.3743 50.376C100.091 50.3685 101.062 50.336 102.29 50.2786C103.518 50.2212 105.001 50.1887 106.741 50.1813C108.446 50.1887 109.912 50.2212 111.133 50.2786C112.353 50.336 113.322 50.3685 114.038 50.376C114.151 50.2961 114.236 50.1363 114.293 49.8967C114.351 49.657 114.385 49.4123 114.398 49.1652C114.41 48.9155 114.403 48.7408 114.381 48.6409L114.378 48.6334ZM136.327 23.549C135.987 23.549 135.575 23.5165 135.084 23.4566C134.594 23.3967 134.01 23.3143 133.334 23.2145C132.892 23.167 132.395 23.1196 131.843 23.0672C131.292 23.0147 130.745 22.9723 130.201 22.9349C129.656 22.8974 129.175 22.8774 128.758 22.8774C126.416 22.8974 124.461 23.2844 122.893 24.0408C121.328 24.7947 120.152 25.8058 119.368 27.0715C118.585 28.3347 118.19 29.7377 118.19 31.283C118.175 32.5462 118.41 33.6946 118.902 34.7232C119.391 35.7542 120.235 36.7478 121.431 37.7014C122.626 38.6576 124.271 39.6537 126.369 40.6947C127.524 41.2689 128.446 41.8031 129.137 42.2974C129.829 42.7942 130.328 43.3085 130.632 43.8402C130.937 44.3745 131.087 44.9836 131.079 45.6676C131.057 46.6862 130.672 47.4901 129.926 48.0717C129.177 48.6534 128.196 48.953 126.98 48.963C126.453 48.963 125.872 48.8956 125.233 48.7533C124.594 48.611 123.994 48.3913 123.433 48.0892C122.444 47.53 121.605 46.6987 120.906 45.5928C120.21 44.4893 119.641 43.0339 119.201 41.2314C119.054 41.2115 118.857 41.2289 118.61 41.2789C118.362 41.3288 118.13 41.3937 117.913 41.4736C117.696 41.5535 117.558 41.6284 117.504 41.7008C117.521 42.0877 117.558 42.6319 117.611 43.3359C117.663 44.04 117.728 44.8014 117.801 45.6152C117.873 46.4291 117.95 47.198 118.028 47.9195C118.108 48.6384 118.18 49.2101 118.25 49.632C119.224 49.984 120.392 50.2911 121.76 50.5557C123.128 50.8228 124.571 50.9626 126.094 50.9751C128.188 50.9676 130.093 50.6032 131.808 49.8867C133.521 49.1702 134.889 48.1541 135.912 46.841C136.936 45.5253 137.46 43.9701 137.485 42.1676C137.5 41.0342 137.311 40.0107 136.911 39.0994C136.512 38.1857 135.81 37.3195 134.807 36.4956C133.803 35.6718 132.4 34.828 130.595 33.9642C128.753 33.1029 127.37 32.3615 126.443 31.7324C125.517 31.1033 124.901 30.5091 124.596 29.9474C124.291 29.3857 124.152 28.7766 124.177 28.1175C124.199 27.094 124.564 26.2826 125.27 25.681C125.977 25.0793 126.885 24.7722 128.001 24.7573C128.578 24.7573 129.112 24.8247 129.606 24.952C130.098 25.0793 130.565 25.2616 131.004 25.4987C131.843 25.9755 132.472 26.687 132.892 27.6332C133.311 28.5794 133.618 29.7277 133.805 31.0783C133.908 31.1432 134.075 31.1832 134.305 31.1957C134.537 31.2056 134.769 31.1956 135.001 31.1632C135.233 31.1307 135.401 31.0808 135.501 31.0134C135.565 29.6578 135.658 28.3472 135.783 27.079C135.908 25.8108 136.085 24.6324 136.319 23.549H136.327Z" fill="white"></path><path fill-rule="evenodd" clip-rule="evenodd" d="M23.7439 0.0549316L51.5246 50.2313C47.0359 50.466 42.5822 50.6707 37.6417 50.9378L19.3926 15.4531L23.7439 0.0549316Z" fill="#414141"></path><path fill-rule="evenodd" clip-rule="evenodd" d="M23.7788 0L13.4684 55.0221L0 48.0469L23.7788 0Z" fill="white"></path><path fill-rule="evenodd" clip-rule="evenodd" d="M24.8548 14.9614L20.4036 17.3805L20.511 17.5902L24.9622 15.1711L24.8548 14.9614Z" fill="white"></path><path fill-rule="evenodd" clip-rule="evenodd" d="M24.9497 20.209L22.5356 21.5196L22.6429 21.7293L25.0595 20.4187L24.9497 20.209Z" fill="white"></path><path fill-rule="evenodd" clip-rule="evenodd" d="M24.8548 14.9614L20.4036 17.3805L20.511 17.5902L24.9622 15.1711L24.8548 14.9614Z" fill="white"></path><path fill-rule="evenodd" clip-rule="evenodd" d="M23.6465 17.6799L21.2324 18.9906L21.3398 19.2003L23.7538 17.8896L23.6465 17.6799Z" fill="white"></path><path fill-rule="evenodd" clip-rule="evenodd" d="M26.0032 22.2534L23.5891 23.5641L23.699 23.7738L26.1105 22.4631L26.0032 22.2534Z" fill="white"></path><path fill-rule="evenodd" clip-rule="evenodd" d="M27.0767 24.3406L24.6626 25.6512L24.7724 25.8609L27.184 24.5503L27.0767 24.3406Z" fill="white"></path><path fill-rule="evenodd" clip-rule="evenodd" d="M30.1972 25.3367L25.746 27.7532L25.8559 27.963L30.3046 25.5464L30.1972 25.3367Z" fill="white"></path><path fill-rule="evenodd" clip-rule="evenodd" d="M30.2921 30.5818L27.8806 31.8924L27.9879 32.1046L30.402 30.794L30.2921 30.5818Z" fill="white"></path><path fill-rule="evenodd" clip-rule="evenodd" d="M30.1972 25.3367L25.746 27.7532L25.8559 27.963L30.3046 25.5464L30.1972 25.3367Z" fill="white"></path><path fill-rule="evenodd" clip-rule="evenodd" d="M28.9915 28.0527L26.5774 29.3634L26.6847 29.5731L29.0988 28.2624L28.9915 28.0527Z" fill="white"></path><path fill-rule="evenodd" clip-rule="evenodd" d="M31.3456 32.6289L28.934 33.9395L29.0414 34.1493L31.4554 32.8386L31.3456 32.6289Z" fill="white"></path><path fill-rule="evenodd" clip-rule="evenodd" d="M32.4216 34.7158L30.0075 36.0265L30.1149 36.2337L32.5289 34.923L32.4216 34.7158Z" fill="white"></path><path fill-rule="evenodd" clip-rule="evenodd" d="M35.4373 35.5098L30.9861 37.9263L31.096 38.136L35.5447 35.7195L35.4373 35.5098Z" fill="white"></path><path fill-rule="evenodd" clip-rule="evenodd" d="M35.5347 40.7573L33.1206 42.068L33.228 42.2777L35.642 40.967L35.5347 40.7573Z" fill="white"></path><path fill-rule="evenodd" clip-rule="evenodd" d="M35.4373 35.5098L30.9861 37.9263L31.096 38.136L35.5447 35.7195L35.4373 35.5098Z" fill="white"></path><path fill-rule="evenodd" clip-rule="evenodd" d="M34.2315 38.2283L31.8174 39.5389L31.9248 39.7461L34.3389 38.4355L34.2315 38.2283Z" fill="white"></path><path fill-rule="evenodd" clip-rule="evenodd" d="M36.5882 42.802L34.1741 44.1126L34.2815 44.3223L36.6956 43.0117L36.5882 42.802Z" fill="white"></path><path fill-rule="evenodd" clip-rule="evenodd" d="M37.6616 44.8865L35.2476 46.1971L35.3549 46.4068L37.769 45.0987L37.6616 44.8865Z" fill="white"></path><path fill-rule="evenodd" clip-rule="evenodd" d="M40.5875 45.4307L36.1813 47.9771L36.2911 48.1818L40.6974 45.6354L40.5875 45.4307Z" fill="white"></path><path fill-rule="evenodd" clip-rule="evenodd" d="M39.5365 48.4988L37.1474 49.8793L37.2597 50.0865L39.6489 48.7035L39.5365 48.4988Z" fill="white"></path></svg>